<?xml version="1.0" encoding="utf-8"?>
<!-- Generator: Adobe Illustrator 28.0.0, SVG Export Plug-In . SVG Version: 6.00 Build 0)  -->
<svg version="1.1" xmlns="http://www.w3.org/2000/svg" xmlns:xlink="http://www.w3.org/1999/xlink" x="0px" y="0px"
	 viewBox="0 0 1366 768" style="enable-background:new 0 0 1366 768;" xml:space="preserve">
<g id="b">
	<g>
		<path d="M146.3,198.7c-1.2,0.6-3,1-4.6,1c-5.4,0-8.6-4.6-8.6-11.8c0-22.4,32.9-85.9,75.9-85.9c39.2,0,85,45.2,85,68
			c0,12.8-41.7,42.5-56.9,57.3c19.8,10.4,63.9,29.9,63.9,38.7c0,21.2-56,91-85,91c-14,0-23.9-62.9-43.7-75.9
			c-8.4,6.8-18.5,18.9-23.3,18.9c-5,0-28-13.6-28-26c0-7.6,27.9-13.1,43.5-14.5c10-21.2,19.6-56.6,23.6-83.4
			C170.7,178.3,153.7,183.9,146.3,198.7z M232.3,265.9c0-10.4-8.8-18.8-35-30c-2.8,9.8-7,19.2-13.2,28c15.8,5.4,31.6,10.4,39.2,10.4
			C228.3,274.3,232.3,271.1,232.3,265.9z M201.5,221.9c2.2-0.4,5-0.6,8.4-0.6c3,0,6.4,0.2,9.6,0.6c6.6-10.6,9.6-21.6,9.6-28.6
			c0-8.8-4.4-15-18-17.4C207.7,196.1,204.5,210.7,201.5,221.9z"/>
	</g>
</g>
<g id="o">
	<g>
		<path d="M876.5,245.5c-47.3,6.2-62.2,4.3-62.2-19c0-23.1,23-40.2,47.1-74.6c11.4-16.3,61.4,29.2,61.4,52.2
			C922.8,227.4,896.2,242.9,876.5,245.5z M876.5,178c-14.8,0-29,11.2-29,29.7c0,18.5,14,21.6,28.8,21.6c14.6,0,29.3-3.3,29.3-21.8
			C905.5,189.1,891,178,876.5,178z"/>
	</g>
</g>
<g id="o2">
	<g>
		<path d="M767.7,312.5c-47.3,6.2-62.2,4.3-62.2-19c0-23.1,23-40.2,47.1-74.6C764,202.6,814,248,814,271.1
			C814,294.4,787.4,309.9,767.7,312.5z M767.7,245c-14.8,0-29,11.2-29,29.7c0,18.5,14,21.6,28.8,21.6c14.6,0,29.3-3.3,29.3-21.8
			C796.8,256,782.3,245,767.7,245z"/>
	</g>
</g>
<g id="o3">
	<g>
		<path d="M631.7,360.5c-63.6,8.4-83.7,5.8-83.7-25.6c0-31,30.9-54.1,63.3-100.4c15.3-21.9,82.6,39.2,82.6,70.3
			C694,336.1,658.2,357,631.7,360.5z M631.7,269.6c-19.9,0-39.1,15.1-39.1,40c0,24.9,18.9,29.1,38.8,29.1c19.6,0,39.4-4.5,39.4-29.3
			C670.8,284.5,651.3,269.6,631.7,269.6z"/>
	</g>
</g>
<g id="o4">
	<g>
		<path d="M515.1,301.8c-54,7.1-71.1,4.9-71.1-21.7c0-26.4,26.2-45.9,53.8-85.3c13-18.6,70.2,33.3,70.2,59.7
			C568,281.1,537.6,298.8,515.1,301.8z M515.1,224.6c-16.9,0-33.2,12.9-33.2,34c0,21.1,16,24.7,33,24.7c16.7,0,33.5-3.8,33.5-24.9
			C548.3,237.3,531.8,224.6,515.1,224.6z"/>
	</g>
</g>
<g id="o5">
	<g>
		<path d="M383,261c-62.3,8.2-82,5.7-82-25.1c0-30.4,30.3-53,62-98.4c15-21.4,81,38.4,81,68.9C444,237.1,408.9,257.5,383,261z
			 M383,172c-19.5,0-38.3,14.8-38.3,39.2c0,24.4,18.5,28.5,38,28.5c19.2,0,38.6-4.4,38.6-28.8C421.3,186.6,402.2,172,383,172z"/>
	</g>
</g>
</svg>
