<svg xmlns="http://www.w3.org/2000/svg" xmlns:xlink="http://www.w3.org/1999/xlink" width="500" zoomAndPan="magnify" viewBox="0 0 375 374.999991" height="500" preserveAspectRatio="xMidYMid meet" version="1.0"><defs><g/></defs><g fill="#2b2b2b" fill-opacity="1"><g transform="translate(173.287289, 326.839051)"><g><path d="M 98.425781 1.359375 L 100.636719 1.359375 L 100.636719 -97.40625 C 100.636719 -111.347656 102.167969 -115.257812 107.4375 -116.785156 L 107.4375 -118.996094 L 86.015625 -118.996094 L 86.015625 -116.785156 C 93.667969 -114.746094 97.746094 -109.988281 97.746094 -90.605469 L 97.746094 -22.78125 L 23.460938 -118.996094 L 6.800781 -118.996094 L 6.800781 -116.785156 C 13.597656 -115.257812 15.640625 -111.347656 15.640625 -97.40625 L 15.640625 -21.589844 C 15.640625 -7.648438 13.941406 -3.738281 8.839844 -2.210938 L 8.839844 0 L 30.089844 0 L 30.089844 -2.210938 C 22.4375 -4.25 18.359375 -9.007812 18.359375 -28.390625 L 18.359375 -102.847656 Z M 98.425781 1.359375 "/></g></g></g><g fill="#2b2b2b" fill-opacity="1"><g transform="translate(71.055181, 214.447884)"><g><path d="M 8.667969 0 L 36.199219 0 L 36.199219 -2.210938 C 30.933594 -3.738281 29.402344 -7.648438 29.402344 -21.585938 L 29.402344 -50.816406 L 41.980469 -63.734375 L 45.378906 -63.734375 C 62.542969 -64.242188 65.09375 -53.875 76.3125 -26.34375 C 84.46875 -6.457031 87.527344 0.851562 99.933594 0.851562 C 103.503906 0.851562 107.242188 0.511719 110.132812 -0.339844 L 110.132812 -2.550781 C 109.113281 -2.378906 108.261719 -2.378906 107.242188 -2.378906 C 101.804688 -2.378906 98.066406 -8.328125 89.398438 -30.082031 C 77.839844 -59.144531 73.929688 -68.324219 48.609375 -66.625 L 44.699219 -66.453125 L 80.898438 -103.503906 C 90.585938 -113.53125 97.726562 -115.230469 103.164062 -116.761719 L 103.164062 -118.96875 L 79.539062 -118.96875 L 79.539062 -117.441406 C 86.167969 -116.421875 84.640625 -110.8125 73.929688 -99.765625 L 29.402344 -54.214844 L 29.402344 -97.386719 C 29.402344 -111.320312 30.933594 -115.230469 36.199219 -116.761719 L 36.199219 -118.96875 L 8.667969 -118.96875 L 8.667969 -116.761719 C 13.765625 -115.230469 15.464844 -111.320312 15.464844 -97.386719 L 15.464844 -21.585938 C 15.464844 -7.648438 13.765625 -3.738281 8.667969 -2.210938 Z M 8.667969 0 "/></g></g></g><g fill="#2b2b2b" fill-opacity="1"><g transform="translate(177.010802, 106.810416)"><g><path d="M 0 1.03125 L 0 4.3125 L 0.261719 4.3125 C 0.445312 3.683594 0.910156 3.503906 2.570312 3.503906 L 6.054688 3.503906 L 7.59375 5 L 7.59375 5.40625 C 7.65625 7.453125 6.417969 7.753906 3.140625 9.09375 C 0.769531 10.0625 -0.101562 10.429688 -0.101562 11.90625 C -0.101562 12.332031 -0.0625 12.777344 0.0390625 13.121094 L 0.304688 13.121094 C 0.285156 13 0.285156 12.898438 0.285156 12.777344 C 0.285156 12.128906 0.992188 11.683594 3.585938 10.652344 C 7.046875 9.273438 8.140625 8.808594 7.9375 5.792969 L 7.917969 5.324219 L 12.332031 9.640625 C 13.527344 10.792969 13.730469 11.644531 13.910156 12.292969 L 14.175781 12.292969 L 14.175781 9.476562 L 13.992188 9.476562 C 13.871094 10.265625 13.203125 10.085938 11.886719 8.808594 L 6.460938 3.503906 L 11.601562 3.503906 C 13.265625 3.503906 13.730469 3.683594 13.910156 4.3125 L 14.175781 4.3125 L 14.175781 1.03125 L 13.910156 1.03125 C 13.730469 1.640625 13.265625 1.84375 11.601562 1.84375 L 2.570312 1.84375 C 0.910156 1.84375 0.445312 1.640625 0.261719 1.03125 Z M 0 1.03125 "/></g></g></g><g fill="#2b2b2b" fill-opacity="1"><g transform="translate(177.010802, 122.950724)"><g><path d="M -0.140625 11.339844 C -0.140625 11.746094 -0.101562 12.273438 0 12.574219 L 0.242188 12.574219 C 0.222656 12.472656 0.222656 12.371094 0.222656 12.25 C 0.222656 11.5625 0.890625 11.15625 3.320312 10.1875 C 5.8125 9.214844 7.046875 8.828125 7.371094 6.339844 C 7.675781 8.972656 9.113281 10.347656 11.015625 10.347656 C 12.816406 10.347656 14.175781 9.132812 14.175781 5.023438 L 14.175781 1.03125 L 13.910156 1.03125 C 13.730469 1.660156 13.265625 1.84375 11.601562 1.84375 L 2.570312 1.84375 C 0.910156 1.84375 0.445312 1.660156 0.261719 1.03125 L 0 1.03125 L 0 4.3125 L 0.261719 4.3125 C 0.445312 3.683594 0.910156 3.503906 2.570312 3.503906 L 7.308594 3.503906 L 7.308594 4.800781 C 7.308594 7.230469 5.894531 7.390625 3.097656 8.566406 C 0.992188 9.457031 -0.140625 9.78125 -0.140625 11.339844 Z M 7.613281 3.503906 L 13.832031 3.503906 C 13.851562 3.828125 13.871094 4.152344 13.871094 4.453125 C 13.871094 7.453125 12.351562 8.625 10.550781 8.625 C 8.828125 8.625 7.613281 7.53125 7.613281 5.203125 Z M 7.613281 3.503906 "/></g></g></g><g fill="#2b2b2b" fill-opacity="1"><g transform="translate(177.010802, 138.524035)"><g><path d="M 0 1.03125 L 0 4.3125 L 0.261719 4.3125 C 0.445312 3.683594 0.910156 3.503906 2.570312 3.503906 L 11.601562 3.503906 C 13.265625 3.503906 13.730469 3.683594 13.910156 4.3125 L 14.175781 4.3125 L 14.175781 1.03125 L 13.910156 1.03125 C 13.730469 1.640625 13.265625 1.84375 11.601562 1.84375 L 2.570312 1.84375 C 0.910156 1.84375 0.445312 1.640625 0.261719 1.03125 Z M 0 1.03125 "/></g></g></g><g fill="#2b2b2b" fill-opacity="1"><g transform="translate(177.010802, 147.05036)"><g><path d="M -0.203125 5.769531 C -0.203125 8.160156 1.335938 10.507812 3.867188 10.507812 C 6.15625 10.507812 7.046875 8.402344 7.9375 6.15625 C 8.648438 4.433594 9.417969 2.347656 11.320312 2.347656 C 13.039062 2.347656 13.992188 3.746094 13.992188 5.386719 C 13.992188 7.695312 12.738281 9.113281 10.976562 9.863281 L 11.035156 10.0625 L 13.386719 9.984375 C 13.808594 9.195312 14.316406 7.878906 14.316406 6.035156 C 14.316406 3.058594 12.816406 1.09375 10.449219 1.09375 C 8.300781 1.09375 7.453125 2.613281 6.5 5 C 5.8125 6.703125 4.878906 9.195312 2.855469 9.195312 C 1.214844 9.195312 0.160156 7.796875 0.160156 6.175781 C 0.160156 3.363281 1.964844 1.824219 4.089844 1.03125 L 4.050781 0.808594 L 1.234375 0.910156 C 0.546875 1.863281 -0.203125 3.644531 -0.203125 5.769531 Z M -0.203125 5.769531 "/></g></g></g><g fill="#2b2b2b" fill-opacity="1"><g transform="translate(177.010802, 161.388419)"><g><path d="M 0 4.03125 L 0 7.332031 L 0.261719 7.332031 C 0.445312 6.703125 0.910156 6.519531 2.570312 6.519531 L 13.851562 6.519531 L 13.851562 7.472656 C 13.851562 9.292969 13.363281 10.085938 11.90625 10.773438 L 11.949219 10.996094 L 14.175781 10.875 L 14.175781 0.445312 L 11.949219 0.324219 L 11.90625 0.546875 C 13.363281 1.234375 13.851562 2.023438 13.851562 3.847656 L 13.851562 4.839844 L 2.570312 4.839844 C 0.910156 4.839844 0.445312 4.65625 0.261719 4.03125 Z M 0 4.03125 "/></g></g></g><g fill="#2b2b2b" fill-opacity="1"><g transform="translate(177.010802, 175.908739)"><g><path d="M 0 -0.34375 L 0 1.945312 L 0.261719 1.945312 C 0.40625 1.253906 1.074219 1.175781 2.390625 1.699219 L 5.347656 2.894531 L 5.347656 8.605469 L 2.371094 9.839844 C 0.851562 10.488281 0.445312 10.652344 0.261719 10.023438 L 0 10.023438 L 0 13.164062 L 0.261719 13.164062 C 0.445312 12.738281 0.851562 12.25 2.371094 11.625 L 14.335938 6.640625 L 13.648438 5.125 L 13.222656 5.304688 C 12.898438 5.46875 12.636719 5.488281 12.273438 5.347656 L 2.390625 1.355469 C 0.851562 0.730469 0.445312 0.222656 0.261719 -0.34375 Z M 5.648438 3.015625 L 12.3125 5.710938 L 5.648438 8.484375 Z M 5.648438 3.015625 "/></g></g></g><g fill="#2b2b2b" fill-opacity="1"><g transform="translate(174.914789, 300.450098)"><g><path d="M 0.160156 -11.726562 L 0.160156 -11.988281 L -11.601562 -11.988281 C -13.265625 -11.988281 -13.730469 -12.171875 -13.910156 -12.796875 L -14.175781 -12.796875 L -14.175781 -10.246094 L -13.910156 -10.246094 C -13.667969 -11.15625 -13.101562 -11.644531 -10.792969 -11.644531 L -2.714844 -11.644531 L -14.175781 -2.792969 L -14.175781 -0.808594 L -13.910156 -0.808594 C -13.730469 -1.621094 -13.265625 -1.863281 -11.601562 -1.863281 L -2.570312 -1.863281 C -0.910156 -1.863281 -0.445312 -1.660156 -0.261719 -1.054688 L 0 -1.054688 L 0 -3.585938 L -0.261719 -3.585938 C -0.507812 -2.671875 -1.074219 -2.1875 -3.382812 -2.1875 L -12.25 -2.1875 Z M 0.160156 -11.726562 "/></g></g></g><g fill="#2b2b2b" fill-opacity="1"><g transform="translate(174.914789, 283.66179)"><g><path d="M 0 0.34375 L 0 -1.945312 L -0.261719 -1.945312 C -0.40625 -1.253906 -1.074219 -1.175781 -2.390625 -1.699219 L -5.347656 -2.894531 L -5.347656 -8.605469 L -2.371094 -9.839844 C -0.851562 -10.488281 -0.445312 -10.652344 -0.261719 -10.023438 L 0 -10.023438 L 0 -13.164062 L -0.261719 -13.164062 C -0.445312 -12.738281 -0.851562 -12.25 -2.371094 -11.625 L -14.335938 -6.640625 L -13.648438 -5.125 L -13.222656 -5.304688 C -12.898438 -5.46875 -12.636719 -5.488281 -12.273438 -5.347656 L -2.390625 -1.355469 C -0.851562 -0.730469 -0.445312 -0.222656 -0.261719 0.34375 Z M -5.648438 -3.015625 L -12.3125 -5.710938 L -5.648438 -8.484375 Z M -5.648438 -3.015625 "/></g></g></g><g fill="#2b2b2b" fill-opacity="1"><g transform="translate(174.914789, 267.501238)"><g><path d="M 0.203125 -5.769531 C 0.203125 -8.160156 -1.335938 -10.507812 -3.867188 -10.507812 C -6.15625 -10.507812 -7.046875 -8.402344 -7.9375 -6.15625 C -8.648438 -4.433594 -9.417969 -2.347656 -11.320312 -2.347656 C -13.039062 -2.347656 -13.992188 -3.746094 -13.992188 -5.386719 C -13.992188 -7.695312 -12.738281 -9.113281 -10.976562 -9.863281 L -11.035156 -10.0625 L -13.386719 -9.984375 C -13.808594 -9.195312 -14.316406 -7.878906 -14.316406 -6.035156 C -14.316406 -3.058594 -12.816406 -1.09375 -10.449219 -1.09375 C -8.300781 -1.09375 -7.453125 -2.613281 -6.5 -5 C -5.8125 -6.703125 -4.878906 -9.195312 -2.855469 -9.195312 C -1.214844 -9.195312 -0.160156 -7.796875 -0.160156 -6.175781 C -0.160156 -3.363281 -1.964844 -1.824219 -4.089844 -1.03125 L -4.050781 -0.808594 L -1.234375 -0.910156 C -0.546875 -1.863281 0.203125 -3.644531 0.203125 -5.769531 Z M 0.203125 -5.769531 "/></g></g></g><g fill="#2b2b2b" fill-opacity="1"><g transform="translate(174.914789, 253.163179)"><g><path d="M 0 -1.03125 L 0 -4.3125 L -0.261719 -4.3125 C -0.445312 -3.683594 -0.910156 -3.503906 -2.570312 -3.503906 L -7.351562 -3.503906 L -7.351562 -11.21875 L -2.570312 -11.21875 C -0.910156 -11.21875 -0.445312 -11.015625 -0.261719 -10.410156 L 0 -10.410156 L 0 -13.6875 L -0.261719 -13.6875 C -0.445312 -13.0625 -0.910156 -12.878906 -2.570312 -12.878906 L -11.601562 -12.878906 C -13.265625 -12.878906 -13.730469 -13.0625 -13.910156 -13.6875 L -14.175781 -13.6875 L -14.175781 -10.410156 L -13.910156 -10.410156 C -13.730469 -11.015625 -13.265625 -11.21875 -11.601562 -11.21875 L -7.675781 -11.21875 L -7.675781 -3.503906 L -11.601562 -3.503906 C -13.265625 -3.503906 -13.730469 -3.683594 -13.910156 -4.3125 L -14.175781 -4.3125 L -14.175781 -1.03125 L -13.910156 -1.03125 C -13.730469 -1.640625 -13.265625 -1.84375 -11.601562 -1.84375 L -2.570312 -1.84375 C -0.910156 -1.84375 -0.445312 -1.640625 -0.261719 -1.03125 Z M 0 -1.03125 "/></g></g></g></svg>