<svg xmlns="http://www.w3.org/2000/svg" xmlns:xlink="http://www.w3.org/1999/xlink" width="500" zoomAndPan="magnify" viewBox="0 0 375 374.999991" height="500" preserveAspectRatio="xMidYMid meet" version="1.0"><defs><g/></defs><g fill="#ffffff" fill-opacity="1"><g transform="translate(146.236629, 278.067908)"><g><path d="M 98.425781 1.359375 L 100.636719 1.359375 L 100.636719 -97.40625 C 100.636719 -111.347656 102.167969 -115.257812 107.4375 -116.785156 L 107.4375 -118.996094 L 86.015625 -118.996094 L 86.015625 -116.785156 C 93.667969 -114.746094 97.746094 -109.988281 97.746094 -90.605469 L 97.746094 -22.78125 L 23.460938 -118.996094 L 6.800781 -118.996094 L 6.800781 -116.785156 C 13.597656 -115.257812 15.640625 -111.347656 15.640625 -97.40625 L 15.640625 -21.589844 C 15.640625 -7.648438 13.941406 -3.738281 8.839844 -2.210938 L 8.839844 0 L 30.089844 0 L 30.089844 -2.210938 C 22.4375 -4.25 18.359375 -9.007812 18.359375 -28.390625 L 18.359375 -102.847656 Z M 98.425781 1.359375 "/></g></g></g><g fill="#ffffff" fill-opacity="1"><g transform="translate(57.456877, 164.398308)"><g><path d="M 8.667969 0 L 36.199219 0 L 36.199219 -2.210938 C 30.933594 -3.738281 29.402344 -7.648438 29.402344 -21.585938 L 29.402344 -50.816406 L 41.980469 -63.734375 L 45.378906 -63.734375 C 62.542969 -64.242188 65.09375 -53.875 76.3125 -26.34375 C 84.46875 -6.457031 87.527344 0.851562 99.933594 0.851562 C 103.503906 0.851562 107.242188 0.511719 110.132812 -0.339844 L 110.132812 -2.550781 C 109.113281 -2.378906 108.261719 -2.378906 107.242188 -2.378906 C 101.804688 -2.378906 98.066406 -8.328125 89.398438 -30.082031 C 77.839844 -59.144531 73.929688 -68.324219 48.609375 -66.625 L 44.699219 -66.453125 L 80.898438 -103.503906 C 90.585938 -113.53125 97.726562 -115.230469 103.164062 -116.761719 L 103.164062 -118.96875 L 79.539062 -118.96875 L 79.539062 -117.441406 C 86.167969 -116.421875 84.640625 -110.8125 73.929688 -99.765625 L 29.402344 -54.214844 L 29.402344 -97.386719 C 29.402344 -111.320312 30.933594 -115.230469 36.199219 -116.761719 L 36.199219 -118.96875 L 8.667969 -118.96875 L 8.667969 -116.761719 C 13.765625 -115.230469 15.464844 -111.320312 15.464844 -97.386719 L 15.464844 -21.585938 C 15.464844 -7.648438 13.765625 -3.738281 8.667969 -2.210938 Z M 8.667969 0 "/></g></g></g></svg>