<svg xmlns="http://www.w3.org/2000/svg" xmlns:xlink="http://www.w3.org/1999/xlink" width="500" zoomAndPan="magnify" viewBox="0 0 375 374.999991" height="500" preserveAspectRatio="xMidYMid meet" version="1.0"><defs><g/><clipPath id="3057adf956"><path d="M 71.925781 75 L 268.332031 75 L 268.332031 261.957031 L 71.925781 261.957031 Z M 71.925781 75 " clip-rule="nonzero"/></clipPath><clipPath id="e5f0c65295"><path d="M 252 67.878906 L 303.058594 67.878906 L 303.058594 159.328125 L 252 159.328125 Z M 252 67.878906 " clip-rule="nonzero"/></clipPath></defs><g clip-path="url(#3057adf956)"><path fill="#bb8327" d="M 183.257812 262.363281 C 174.808594 262.363281 165.980469 259.085938 156.289062 252.347656 C 148.011719 246.59375 140.652344 239.40625 133.929688 232.496094 C 116.507812 214.578125 100.550781 178.769531 95.71875 164.636719 C 94.015625 165.558594 92.003906 165.625 90 164.808594 C 87.050781 163.617188 84.226562 160.652344 81.609375 156.007812 C 78.441406 150.394531 75.660156 142.429688 73.34375 132.328125 C 69.660156 116.28125 74.078125 112.875 76.144531 112.15625 C 78.011719 111.511719 80.292969 112.082031 82.566406 113.769531 C 84.816406 115.433594 86.863281 118.0625 88.332031 121.160156 C 89.210938 123.214844 90.378906 124.105469 91.027344 123.910156 C 91.917969 123.640625 92.59375 121.375 91.578125 115.878906 C 91.121094 113.394531 91.171875 111.898438 91.746094 111.164062 C 91.996094 110.847656 92.332031 110.675781 92.746094 110.648438 C 93.777344 110.585938 94.84375 111.648438 96.449219 113.261719 C 99.691406 116.507812 104.585938 121.414062 113.367188 121.320312 L 114.964844 121.300781 L 113.542969 122.035156 C 113.507812 122.050781 110.929688 123.394531 108.96875 125.199219 C 111 123.734375 113.011719 122.898438 115.34375 123.0625 L 116.550781 123.148438 L 115.511719 123.765625 C 115.394531 123.835938 115.277344 123.910156 115.152344 123.980469 C 113.65625 124.859375 111.875 125.910156 111.140625 127.769531 C 112.890625 125.738281 115.339844 124.449219 117.535156 124.503906 L 119.054688 124.542969 L 117.699219 125.222656 C 116.3125 125.914062 115.289062 127.433594 114.890625 128.851562 C 116.679688 126.378906 119.472656 125 121.640625 124.890625 L 124.074219 124.769531 L 121.796875 125.628906 C 120.390625 126.152344 119.417969 127.9375 119.101562 129.722656 C 120.546875 127.414062 121.96875 125.980469 124.941406 125.574219 L 126.734375 125.328125 L 125.191406 126.273438 C 124.410156 126.75 123.46875 128.445312 123.027344 130.066406 C 124.230469 128.019531 125.996094 126.421875 127.808594 125.84375 L 129.15625 125.417969 L 128.207031 126.460938 C 127.679688 127.042969 127.160156 128.402344 126.925781 129.710938 C 127.785156 127.832031 129.191406 126.113281 131.148438 125.738281 L 132.449219 125.488281 L 131.476562 126.386719 C 130.484375 127.308594 130.039062 129.066406 130.300781 130.722656 C 131.410156 128.109375 132.378906 126.089844 134.316406 125.550781 L 135.234375 125.292969 L 134.738281 126.113281 C 133.957031 127.40625 133.230469 129.191406 133.777344 130.832031 C 134.546875 128.066406 135.648438 125.402344 137.695312 124.777344 L 138.804688 124.441406 L 138.109375 125.367188 C 137.054688 126.777344 136.945312 127.695312 137.34375 128.539062 C 137.8125 126.09375 138.933594 124.753906 141.070312 124.007812 L 142.136719 123.636719 L 141.511719 124.578125 C 141.011719 125.328125 140.882812 126.425781 141.132812 127.585938 C 141.140625 127.5625 141.148438 127.539062 141.15625 127.515625 C 141.785156 125.71875 142.5 123.683594 145.003906 123.21875 L 145.792969 123.070312 L 145.402344 123.777344 C 144.777344 124.902344 144.320312 125.859375 144.433594 127 C 144.441406 126.972656 144.449219 126.945312 144.460938 126.917969 C 145.199219 124.511719 145.601562 123.183594 148.972656 122.542969 L 150.429688 122.261719 L 149.285156 123.207031 C 148.46875 123.878906 148.105469 124.535156 147.972656 125.332031 C 149.300781 123.679688 151.441406 122.375 153.75 121.867188 C 155.703125 121.433594 157.550781 121.613281 159.066406 122.367188 C 157.371094 118.84375 154.777344 116.800781 150.980469 115.980469 C 147.109375 115.144531 142.410156 115.59375 136.96875 116.113281 C 125.464844 117.214844 111.148438 118.585938 97.035156 107.960938 L 95.972656 107.160156 L 97.300781 107.277344 C 102.765625 107.773438 112.714844 104.359375 119.566406 101.289062 C 125.183594 98.769531 130.851562 97.570312 136.414062 97.722656 C 141.46875 97.859375 146.265625 99.148438 150.289062 101.449219 C 156.085938 104.757812 159.886719 109.910156 160.828125 115.675781 C 161.871094 114.125 162.832031 111.382812 162.9375 108.042969 C 163.035156 104.9375 162.421875 100.324219 158.957031 95.980469 C 153.511719 89.164062 144.472656 84.671875 134.15625 83.65625 C 128.078125 83.058594 121.621094 83.644531 114.96875 85.394531 C 107.527344 87.355469 99.839844 90.78125 92.117188 95.582031 L 91.382812 96.035156 L 91.546875 95.191406 C 92.703125 89.035156 97.070312 84.113281 104.527344 80.554688 C 110.433594 77.738281 118.253906 75.894531 126.542969 75.359375 C 137.296875 74.664062 147.253906 76.167969 155.335938 79.699219 C 162.742188 82.933594 168.320312 87.824219 171.046875 93.460938 C 175.050781 101.753906 175.167969 121.664062 175.230469 132.363281 C 175.238281 133.503906 175.246094 134.550781 175.253906 135.472656 C 175.441406 152.21875 170.191406 160.945312 167.054688 166.160156 C 166.785156 166.609375 166.527344 167.039062 166.292969 167.441406 C 163.648438 171.960938 163.617188 175.933594 166.207031 178.0625 C 168.160156 179.671875 169.242188 178.902344 170.5 178.011719 C 171.429688 177.355469 172.484375 176.609375 173.859375 177.140625 C 174.769531 177.492188 175.601562 178.09375 176.476562 178.734375 C 178.9375 180.527344 181.257812 182.21875 185.371094 178.589844 C 186.949219 177.199219 188.191406 176.613281 189.398438 176.691406 C 191.042969 176.796875 192.527344 178.128906 194.246094 180.097656 L 194.691406 180.605469 L 194.027344 180.71875 C 189.058594 181.570312 185.609375 183.71875 183.773438 187.109375 C 181.558594 191.1875 182.257812 196.078125 183.527344 199.027344 L 182.832031 199.324219 C 181.492188 196.21875 180.761719 191.0625 183.105469 186.746094 C 184.976562 183.300781 188.378906 181.0625 193.230469 180.097656 C 191.585938 178.292969 190.4375 177.515625 189.347656 177.449219 C 188.355469 177.382812 187.285156 177.910156 185.871094 179.15625 C 181.300781 183.191406 178.5 181.148438 176.03125 179.347656 C 175.195312 178.738281 174.40625 178.164062 173.585938 177.847656 C 172.589844 177.460938 171.824219 178.003906 170.933594 178.632812 C 169.683594 179.523438 168.121094 180.625 165.722656 178.648438 C 162.820312 176.261719 162.789062 171.925781 165.640625 167.058594 C 165.875 166.652344 166.132812 166.222656 166.40625 165.769531 C 169.5 160.625 174.679688 152.011719 174.496094 135.480469 C 174.488281 134.558594 174.480469 133.511719 174.472656 132.367188 C 174.410156 121.730469 174.292969 101.929688 170.363281 93.789062 C 167.71875 88.3125 162.273438 83.558594 155.03125 80.394531 C 147.058594 76.910156 137.226562 75.429688 126.59375 76.117188 C 118.398438 76.644531 110.675781 78.464844 104.855469 81.238281 C 97.984375 84.515625 93.824219 88.964844 92.476562 94.472656 C 100.007812 89.875 107.503906 86.578125 114.777344 84.664062 C 121.515625 82.886719 128.0625 82.292969 134.230469 82.902344 C 144.75 83.9375 153.976562 88.53125 159.550781 95.507812 C 163.160156 100.03125 163.796875 104.832031 163.695312 108.066406 C 163.585938 111.671875 162.46875 115.132812 160.855469 116.875 L 160.292969 117.484375 L 160.199219 116.65625 C 159.542969 110.773438 155.792969 105.464844 149.914062 102.109375 C 145.996094 99.867188 141.320312 98.613281 136.394531 98.480469 C 130.945312 98.328125 125.390625 99.507812 119.878906 101.980469 C 117.507812 103.042969 105.878906 108.078125 98.496094 108.089844 C 112.046875 117.738281 125.796875 116.421875 136.898438 115.359375 C 147.796875 114.316406 156.40625 113.492188 160.253906 123.1875 L 160.761719 124.46875 L 159.671875 123.628906 C 158.171875 122.480469 156.128906 122.117188 153.914062 122.605469 C 151.289062 123.183594 148.917969 124.851562 147.875 126.851562 L 147.21875 128.109375 L 147.160156 126.691406 C 147.109375 125.5 147.230469 124.511719 147.878906 123.59375 C 146.089844 124.175781 145.800781 125.132812 145.183594 127.136719 C 145.0625 127.539062 144.925781 127.992188 144.757812 128.484375 L 144.433594 129.445312 L 144.050781 128.507812 C 143.351562 126.8125 143.683594 125.511719 144.316406 124.214844 C 142.898438 124.839844 142.398438 126.265625 141.871094 127.761719 C 141.738281 128.140625 141.605469 128.53125 141.453125 128.90625 L 141.097656 129.773438 L 140.746094 128.90625 C 140.203125 127.554688 140.101562 126.203125 140.4375 125.105469 C 138.933594 125.910156 138.210938 127.253906 137.949219 129.621094 L 137.851562 130.523438 L 137.277344 129.816406 C 136.351562 128.667969 136.132812 127.601562 136.644531 126.363281 C 135.488281 127.632812 134.769531 129.953125 134.25 132.003906 L 134.039062 132.832031 L 133.566406 132.117188 C 132.398438 130.355469 132.78125 128.390625 133.515625 126.796875 C 132.40625 127.671875 131.675781 129.40625 130.742188 131.625 L 130.1875 132.9375 L 129.855469 132.035156 C 129.234375 130.335938 129.375 128.359375 130.132812 126.933594 C 128.511719 127.902344 127.371094 130.09375 126.898438 132.144531 L 126.550781 133.632812 L 126.160156 132.15625 C 125.804688 130.808594 126.269531 128.53125 126.964844 127.042969 C 125.195312 128.050781 123.601562 130.054688 122.792969 132.371094 L 122.285156 133.828125 L 122.0625 132.300781 C 121.828125 130.726562 122.714844 128.09375 123.832031 126.582031 C 121.472656 127.277344 120.386719 128.960938 118.945312 131.464844 L 118.300781 132.574219 L 118.238281 131.292969 C 118.144531 129.496094 118.792969 127.308594 120.027344 125.96875 C 118.015625 126.613281 115.851562 128.222656 114.695312 130.660156 L 114.136719 131.847656 L 113.976562 130.542969 C 113.789062 129.007812 114.605469 126.820312 116.109375 125.421875 C 114.085938 125.910156 112.019531 127.480469 110.75 129.601562 L 109.988281 130.867188 L 110.042969 129.390625 C 110.15625 126.519531 112.105469 124.960938 113.882812 123.859375 C 111.457031 124.164062 109.308594 125.695312 106.933594 127.875 L 105.699219 129.007812 L 106.324219 127.453125 C 107.246094 125.167969 110.265625 123.085938 111.980469 122.050781 C 103.730469 121.632812 98.875 116.769531 95.914062 113.796875 C 94.554688 112.4375 93.484375 111.363281 92.792969 111.402344 C 92.59375 111.417969 92.457031 111.488281 92.347656 111.628906 C 92.054688 111.996094 91.820312 113.011719 92.324219 115.738281 C 93.277344 120.898438 92.886719 124.136719 91.246094 124.636719 C 90.054688 124.996094 88.605469 123.722656 87.640625 121.46875 C 84.789062 115.457031 79.847656 111.675781 76.394531 112.875 C 72.488281 114.230469 71.625 121.441406 74.082031 132.160156 C 76.480469 142.613281 81.773438 160.660156 90.285156 164.109375 C 92.222656 164.894531 94.152344 164.765625 95.71875 163.75 L 96.128906 163.484375 L 96.285156 163.949219 C 100.914062 177.710938 116.953125 213.949219 134.476562 231.96875 C 141.167969 238.851562 148.5 246.007812 156.726562 251.726562 C 166.519531 258.535156 175.402344 261.765625 183.878906 261.597656 C 192.742188 261.425781 201.625 257.792969 211.042969 250.488281 C 219.121094 244.21875 226.238281 236.265625 231.953125 229.871094 L 232.257812 229.53125 C 239.214844 221.796875 246.246094 211.839844 252.59375 200.730469 C 258.363281 190.640625 263.464844 179.832031 267.355469 169.460938 C 266.617188 168.609375 263.335938 164.71875 260.28125 159.398438 C 257.082031 153.839844 253.476562 145.535156 254.460938 137.546875 L 255.210938 137.636719 C 254.253906 145.414062 257.792969 153.550781 260.929688 159.007812 C 264.34375 164.945312 268.03125 169.085938 268.070312 169.125 L 268.226562 169.296875 L 268.144531 169.511719 C 264.230469 179.988281 259.082031 190.914062 253.253906 201.105469 C 246.878906 212.261719 239.8125 222.261719 232.820312 230.039062 L 232.519531 230.375 C 226.78125 236.792969 219.640625 244.777344 211.507812 251.085938 C 201.957031 258.496094 192.921875 262.183594 183.890625 262.355469 C 183.683594 262.363281 183.46875 262.363281 183.257812 262.363281 " fill-opacity="1" fill-rule="nonzero"/></g><path fill="#bb8327" d="M 169.976562 211.554688 L 170.152344 211.378906 L 170.359375 211.515625 C 176.285156 215.445312 182.808594 216.667969 187.8125 214.789062 C 191.429688 213.429688 194.300781 212.53125 198.289062 213.417969 C 200.738281 213.960938 206.972656 214.621094 211.105469 212.546875 C 209.429688 213.054688 207.628906 213.222656 205.996094 213.222656 C 205.445312 213.222656 204.914062 213.203125 204.414062 213.171875 C 200.972656 212.960938 197.105469 212.050781 194.316406 210.789062 C 191.007812 209.296875 187.800781 208.628906 184.878906 208.453125 C 184.664062 209.390625 184.242188 210.179688 183.519531 210.679688 C 179.40625 213.527344 174.527344 212.644531 171.335938 210.863281 L 170.816406 210.574219 L 171.355469 210.324219 C 173.171875 209.488281 178.105469 207.5625 184.390625 207.824219 C 184.828125 204.683594 183.132812 199.949219 182.835938 199.144531 C 181.4375 199.25 180.007812 198.570312 178.496094 197.847656 C 176.566406 196.925781 174.566406 195.96875 172.335938 196.492188 C 169.519531 197.152344 166.125 200.085938 164.792969 201.316406 C 161.976562 203.925781 153.398438 211.375 150.699219 212.285156 L 150.070312 212.496094 C 151.828125 212.898438 155.738281 213.421875 159.648438 213.515625 C 164.917969 213.640625 168.585938 212.945312 169.976562 211.554688 " fill-opacity="1" fill-rule="nonzero"/><path fill="#bb8327" d="M 172.183594 210.621094 C 175.207031 212.113281 179.515625 212.714844 183.175781 210.179688 C 183.738281 209.789062 184.085938 209.171875 184.273438 208.421875 C 178.734375 208.214844 174.28125 209.730469 172.183594 210.621094 " fill-opacity="1" fill-rule="nonzero"/><path fill="#bb8327" d="M 184.984375 207.851562 C 187.957031 208.039062 191.207031 208.722656 194.566406 210.238281 C 199.816406 212.609375 209.339844 213.972656 213.855469 210.511719 C 213.609375 210.511719 213.660156 210.550781 213.226562 210.484375 C 211.332031 210.21875 208.910156 207.828125 206.109375 205.070312 C 201.988281 201.007812 196.871094 195.964844 191.238281 195.964844 C 191.164062 195.964844 191.089844 195.964844 191.019531 195.96875 C 188.898438 196.019531 187.457031 196.929688 186.179688 197.734375 C 185.296875 198.296875 184.449219 198.828125 183.449219 199.054688 C 183.859375 200.171875 185.410156 204.644531 184.984375 207.851562 " fill-opacity="1" fill-rule="nonzero"/><path fill="#bb8327" d="M 213.789062 211.304688 C 212.046875 213.21875 209.195312 214.304688 205.308594 214.527344 C 202.285156 214.703125 199.390625 214.285156 198.15625 214.011719 C 194.332031 213.160156 191.542969 214.03125 188.023438 215.355469 C 186.414062 215.960938 184.652344 216.257812 182.808594 216.257812 C 178.785156 216.257812 174.363281 214.847656 170.222656 212.152344 C 166.507812 215.382812 153.503906 213.925781 149.871094 213.070312 C 150.078125 213.316406 150.34375 213.617188 150.546875 213.8125 C 152.542969 215.726562 157.214844 220.207031 163.347656 224.191406 C 170.785156 229.027344 177.804688 231.476562 184.21875 231.476562 C 184.429688 231.476562 184.636719 231.472656 184.84375 231.46875 C 193.441406 231.25 200.726562 225.980469 205.324219 221.597656 C 209.445312 217.667969 212.652344 213.042969 213.800781 211.296875 C 213.796875 211.300781 213.792969 211.304688 213.789062 211.304688 " fill-opacity="1" fill-rule="nonzero"/><path fill="#bb8327" d="M 239.34375 117.121094 L 239.613281 117.832031 C 231.289062 120.964844 223.144531 127.210938 218.355469 134.136719 L 217.734375 133.707031 C 222.605469 126.660156 230.886719 120.304688 239.34375 117.121094 Z M 227.640625 144.199219 L 226.914062 143.976562 C 228.945312 137.378906 234.128906 126.992188 239.296875 121.027344 L 239.871094 121.523438 C 234.765625 127.414062 229.644531 137.679688 227.640625 144.199219 Z M 211.410156 130.269531 C 211.574219 132.097656 213.363281 137.007812 216.289062 141.488281 C 218.839844 145.386719 223.003906 150.160156 228.378906 150.730469 C 232.253906 151.140625 235.542969 146.96875 237.621094 143.394531 C 240.0625 139.195312 241.914062 133.957031 242.664062 130.628906 C 243.613281 126.417969 244.378906 120.339844 243.683594 115.917969 C 243.265625 113.261719 242.371094 113.289062 239.976562 113.355469 C 239.582031 113.367188 239.136719 113.378906 238.660156 113.378906 C 237.960938 113.378906 235.203125 113.554688 231.5 114.019531 C 226.5625 115.6875 221.710938 117.46875 218.0625 119.695312 C 213.140625 122.695312 211.027344 126.054688 211.410156 130.269531 " fill-opacity="1" fill-rule="nonzero"/><path fill="#bb8327" d="M 282.6875 133.707031 L 282.066406 134.136719 C 277.277344 127.210938 269.132812 120.964844 260.808594 117.832031 L 261.078125 117.121094 C 269.535156 120.304688 277.816406 126.660156 282.6875 133.707031 Z M 272.78125 144.199219 C 270.777344 137.679688 265.65625 127.414062 260.550781 121.523438 L 261.125 121.027344 C 266.292969 126.992188 271.480469 137.378906 273.507812 143.976562 Z M 260.484375 113.355469 C 260.136719 113.34375 259.820312 113.335938 259.535156 113.335938 C 257.839844 113.335938 257.132812 113.648438 256.777344 115.917969 C 256.082031 120.339844 256.847656 126.417969 257.796875 130.628906 C 258.546875 133.957031 260.398438 139.195312 262.835938 143.394531 C 264.917969 146.96875 268.207031 151.140625 272.082031 150.730469 C 277.457031 150.160156 281.621094 145.386719 284.171875 141.488281 C 287.097656 137.007812 288.882812 132.097656 289.050781 130.269531 C 289.429688 126.054688 287.320312 122.695312 282.398438 119.695312 C 278.746094 117.46875 273.898438 115.6875 268.957031 114.019531 C 265.257812 113.554688 262.5 113.378906 261.800781 113.378906 C 261.324219 113.378906 260.878906 113.367188 260.484375 113.355469 " fill-opacity="1" fill-rule="nonzero"/><path fill="#bb8327" d="M 250.3125 108.597656 C 249.847656 108.597656 249.414062 108.429688 249.054688 108.140625 C 247.8125 112.683594 247.183594 121.21875 247.441406 130.011719 C 247.703125 138.78125 248.765625 145.617188 250.230469 148.082031 C 251.375 146.15625 252.273438 141.566406 252.738281 135.46875 C 252.8125 134.667969 252.960938 131.871094 253.015625 130.011719 C 253.277344 121.285156 252.65625 112.808594 251.433594 108.242188 C 251.105469 108.46875 250.71875 108.597656 250.3125 108.597656 " fill-opacity="1" fill-rule="nonzero"/><path fill="#bb8327" d="M 239.75 102.304688 L 239.207031 102.832031 C 230.964844 94.449219 220.808594 87.667969 215.039062 85.304688 L 215.324219 84.605469 C 219.886719 86.46875 224.847656 89.84375 228.207031 92.34375 C 232.367188 95.441406 236.574219 99.070312 239.75 102.304688 Z M 239.441406 106.101562 C 228.574219 101.605469 218.335938 101.800781 214.441406 102.09375 C 214.25 102.109375 214.171875 102.113281 214.121094 102.113281 L 214.121094 101.355469 C 214.15625 101.355469 214.246094 101.347656 214.382812 101.335938 C 218.335938 101.039062 228.714844 100.84375 239.730469 105.402344 Z M 224.980469 82.691406 C 216.964844 76.527344 212.320312 75.769531 210.53125 75.769531 C 210.464844 75.769531 210.402344 75.769531 210.339844 75.773438 C 209.109375 75.8125 208.222656 76.207031 207.773438 76.914062 C 206.519531 78.898438 207.835938 81.164062 209.359375 83.785156 C 210.109375 85.074219 210.886719 86.410156 211.390625 87.800781 C 213.535156 93.714844 211.996094 96.542969 210.515625 99.277344 C 210.089844 100.046875 209.65625 100.847656 209.320312 101.703125 C 208.378906 104.105469 208.511719 106.011719 209.71875 107.382812 C 211.910156 109.859375 217.722656 110.78125 226.523438 110.039062 C 233.273438 109.46875 240.625 108.023438 245.429688 106.8125 C 244.960938 105.789062 243.609375 102.925781 241.558594 99.195312 C 235.902344 92.378906 230.269531 86.765625 224.980469 82.691406 " fill-opacity="1" fill-rule="nonzero"/><path fill="#bb8327" d="M 272.21875 92.34375 C 275.574219 89.84375 280.535156 86.46875 285.097656 84.605469 L 285.382812 85.304688 C 279.613281 87.667969 269.457031 94.449219 261.214844 102.832031 L 260.671875 102.304688 C 263.847656 99.070312 268.054688 95.441406 272.21875 92.34375 Z M 286.300781 101.355469 L 286.300781 102.113281 C 286.253906 102.113281 286.171875 102.109375 285.980469 102.09375 C 282.085938 101.800781 271.847656 101.605469 260.980469 106.101562 L 260.691406 105.402344 C 271.707031 100.84375 282.085938 101.039062 286.039062 101.335938 C 286.179688 101.347656 286.265625 101.355469 286.300781 101.355469 Z M 273.9375 110.039062 C 282.738281 110.78125 288.550781 109.859375 290.742188 107.382812 C 291.949219 106.011719 292.082031 104.105469 291.136719 101.703125 C 290.800781 100.847656 290.367188 100.046875 289.945312 99.273438 C 288.460938 96.542969 286.925781 93.714844 289.070312 87.800781 C 289.574219 86.410156 290.347656 85.074219 291.101562 83.785156 C 292.625 81.164062 293.941406 78.898438 292.6875 76.914062 C 292.238281 76.207031 291.351562 75.8125 290.121094 75.773438 C 288.488281 75.71875 283.800781 76.289062 275.480469 82.691406 C 270.191406 86.765625 264.558594 92.378906 258.902344 99.195312 C 256.851562 102.925781 255.5 105.789062 255.027344 106.8125 C 259.835938 108.019531 267.1875 109.46875 273.9375 110.039062 " fill-opacity="1" fill-rule="nonzero"/><g clip-path="url(#e5f0c65295)"><path fill="#bb8327" d="M 253.773438 130.035156 C 253.71875 131.910156 253.628906 133.6875 253.507812 135.351562 C 254.554688 137.960938 262.277344 156.636719 268.902344 158.925781 C 271.289062 159.75 274.84375 158.695312 278.917969 155.953125 C 282.839844 153.316406 286.886719 149.316406 290.03125 144.972656 C 293 140.875 295.007812 136.730469 295.84375 132.988281 C 296.789062 128.738281 296.214844 125.191406 294.128906 122.449219 C 291.925781 119.550781 286 117.082031 276.988281 115.300781 C 275.574219 115.023438 274.179688 114.777344 272.847656 114.570312 C 276.519531 115.894531 279.992188 117.339844 282.792969 119.046875 C 287.914062 122.171875 290.210938 125.867188 289.804688 130.339844 C 289.46875 134.054688 282.75 150.359375 272.160156 151.484375 C 271.957031 151.507812 271.757812 151.515625 271.554688 151.515625 C 268.363281 151.515625 265.140625 148.855469 262.183594 143.773438 C 259.699219 139.507812 257.820312 134.179688 257.058594 130.792969 C 256.089844 126.515625 255.3125 120.328125 256.027344 115.800781 C 256.550781 112.484375 258.039062 112.527344 260.507812 112.597656 C 260.914062 112.609375 261.335938 112.621094 261.800781 112.621094 C 262.308594 112.621094 263.648438 112.699219 265.519531 112.871094 C 262.863281 111.992188 260.128906 111.082031 257.585938 110.121094 L 254.382812 108.914062 L 257.773438 109.390625 C 261.125 109.867188 264.183594 110.359375 267.144531 110.839844 C 274.285156 111.996094 280.453125 112.992188 286.738281 112.992188 C 293.085938 112.992188 296.96875 111.339844 298.277344 108.085938 C 299.585938 104.820312 298.582031 101.53125 297.613281 98.355469 C 297.238281 97.144531 296.859375 95.894531 296.605469 94.65625 C 295.539062 89.386719 296.390625 85.6875 299.535156 81.875 C 302.371094 78.441406 303.503906 75.480469 302.902344 73.074219 C 302.261719 70.503906 299.769531 69.363281 299.277344 69.15625 C 293.980469 66.972656 288.367188 67.585938 282.585938 70.984375 C 277.917969 73.726562 273.136719 78.277344 268.363281 84.5 C 265.488281 88.253906 262.96875 92.175781 260.902344 95.679688 C 265.722656 90.175781 270.492188 85.578125 275.015625 82.09375 C 281.011719 77.476562 286.527344 74.894531 290.144531 75.015625 C 291.640625 75.0625 292.738281 75.582031 293.328125 76.507812 C 294.828125 78.878906 293.335938 81.449219 291.753906 84.167969 C 291.023438 85.429688 290.265625 86.730469 289.785156 88.058594 C 287.753906 93.652344 289.144531 96.210938 290.613281 98.914062 C 291.042969 99.707031 291.492188 100.527344 291.84375 101.429688 C 292.902344 104.113281 292.71875 106.285156 291.308594 107.882812 C 288.921875 110.585938 283.054688 111.566406 273.875 110.792969 C 266.867188 110.203125 259.222656 108.671875 254.402344 107.4375 L 253.96875 107.328125 L 254.148438 106.917969 C 254.171875 106.871094 254.964844 105.078125 256.402344 102.28125 C 254.976562 104.085938 253.550781 105.96875 252.132812 107.914062 C 253.414062 112.578125 254.042969 121.023438 253.773438 130.035156 " fill-opacity="1" fill-rule="nonzero"/></g><path fill="#bb8327" d="M 250.3125 107.992188 C 251.234375 107.992188 251.980469 107.046875 251.980469 105.894531 C 251.980469 104.734375 251.234375 103.792969 250.3125 103.792969 C 249.390625 103.792969 248.644531 104.734375 248.644531 105.894531 C 248.644531 107.046875 249.390625 107.992188 250.3125 107.992188 " fill-opacity="1" fill-rule="nonzero"/><path fill="#bb8327" d="M 246.3125 106.917969 L 246.492188 107.328125 L 246.058594 107.4375 C 241.238281 108.671875 233.59375 110.203125 226.585938 110.792969 C 217.40625 111.566406 211.539062 110.585938 209.152344 107.882812 C 207.738281 106.285156 207.558594 104.113281 208.613281 101.429688 C 208.96875 100.527344 209.414062 99.707031 209.847656 98.914062 C 211.316406 96.210938 212.703125 93.652344 210.675781 88.058594 C 210.195312 86.730469 209.4375 85.429688 208.703125 84.167969 C 207.125 81.449219 205.632812 78.878906 207.132812 76.507812 C 207.71875 75.582031 208.820312 75.0625 210.316406 75.015625 C 213.933594 74.898438 219.445312 77.476562 225.441406 82.09375 C 229.96875 85.578125 234.738281 90.175781 239.558594 95.679688 C 237.492188 92.167969 234.964844 88.246094 232.089844 84.492188 C 227.320312 78.269531 222.535156 73.722656 217.871094 70.984375 C 212.089844 67.585938 206.480469 66.972656 201.183594 69.15625 C 200.691406 69.363281 198.199219 70.503906 197.558594 73.074219 C 196.957031 75.480469 198.089844 78.441406 200.925781 81.875 C 204.074219 85.6875 204.921875 89.386719 203.851562 94.65625 C 203.601562 95.894531 203.21875 97.144531 202.847656 98.355469 C 200.875 104.820312 201.539062 106.476562 202.183594 108.085938 C 203.492188 111.339844 207.371094 112.992188 213.722656 112.992188 C 220.007812 112.992188 226.175781 111.996094 233.3125 110.839844 C 236.273438 110.359375 239.335938 109.867188 242.6875 109.390625 L 246.074219 108.914062 L 242.875 110.121094 C 240.328125 111.082031 237.597656 111.992188 234.941406 112.871094 C 236.808594 112.699219 238.148438 112.621094 238.660156 112.621094 C 239.125 112.621094 239.546875 112.609375 239.953125 112.597656 C 242.421875 112.527344 243.910156 112.484375 244.433594 115.800781 C 245.144531 120.328125 244.371094 126.515625 243.402344 130.792969 C 242.640625 134.179688 240.757812 139.507812 238.277344 143.773438 C 235.132812 149.179688 231.683594 151.84375 228.296875 151.484375 C 217.707031 150.359375 210.992188 134.054688 210.65625 130.339844 C 210.25 125.867188 212.542969 122.171875 217.664062 119.046875 C 220.46875 117.339844 223.941406 115.894531 227.613281 114.570312 C 226.28125 114.777344 224.886719 115.023438 223.472656 115.300781 C 214.460938 117.082031 208.535156 119.550781 206.332031 122.449219 C 204.183594 125.277344 203.640625 128.96875 204.722656 133.417969 C 205.679688 137.335938 207.855469 141.632812 211.027344 145.847656 C 214.1875 150.050781 218.160156 153.871094 221.925781 156.324219 C 225.851562 158.882812 229.269531 159.808594 231.546875 158.929688 C 236.851562 156.882812 245.578125 139.519531 246.941406 135.15625 C 246.824219 133.546875 246.738281 131.835938 246.683594 130.035156 C 246.417969 121.023438 247.046875 112.578125 248.328125 107.914062 C 246.910156 105.96875 245.484375 104.085938 244.058594 102.28125 C 245.492188 105.078125 246.292969 106.871094 246.3125 106.917969 " fill-opacity="1" fill-rule="nonzero"/><path fill="#bb8327" d="M 248.457031 102.238281 C 247.722656 96.832031 246.164062 88.683594 243.988281 82.03125 C 242.089844 76.246094 239.019531 69.453125 235.117188 69.933594 L 235.023438 69.179688 C 238.5625 68.742188 241.824219 72.988281 244.707031 81.796875 C 246.902344 88.496094 248.472656 96.699219 249.210938 102.136719 L 248.457031 102.238281 " fill-opacity="1" fill-rule="nonzero"/><path fill="#bb8327" d="M 251.75 102.238281 L 251 102.136719 C 251.738281 96.699219 253.308594 88.496094 255.5 81.796875 C 258.382812 72.988281 261.640625 68.742188 265.183594 69.179688 L 265.089844 69.933594 C 261.1875 69.449219 258.113281 76.246094 256.21875 82.03125 C 254.042969 88.683594 252.484375 96.832031 251.75 102.238281 " fill-opacity="1" fill-rule="nonzero"/><g fill="#d89d42" fill-opacity="1"><g transform="translate(119.270929, 343.299969)"><g><path d="M 3.085938 -2.40625 C 4.019531 -10.535156 5.351562 -18.632812 7.390625 -26.535156 C 7.644531 -25.542969 8.097656 -24.582031 8.835938 -23.789062 C 10.25 -22.257812 12.96875 -20.84375 15.09375 -21.15625 C 17.953125 -21.550781 19.398438 -22.996094 20.785156 -25.34375 C 22.882812 -28.886719 24.582031 -32.453125 25.65625 -36.445312 C 25.769531 -36.898438 24.863281 -37.269531 24.664062 -36.84375 C 23.109375 -33.246094 21.496094 -29.707031 19.484375 -26.335938 C 18.4375 -24.550781 17.613281 -23.363281 15.605469 -22.65625 C 13.113281 -21.804688 10.023438 -23.363281 9.117188 -25.855469 C 7.589844 -30.1875 11.042969 -34.179688 13.167969 -37.578125 C 13.933594 -38.769531 16.851562 -43.046875 14.554688 -44.121094 C 12.773438 -44.941406 11.15625 -41.914062 10.394531 -40.695312 C 8.128906 -37.125 6.796875 -32.933594 5.523438 -28.941406 C 3.964844 -23.957031 2.773438 -18.890625 1.8125 -13.761719 C 1.753906 -15.71875 1.785156 -17.671875 1.753906 -19.597656 C 1.726562 -25.148438 1.925781 -30.726562 2.320312 -36.277344 C 2.351562 -36.332031 2.351562 -36.417969 2.351562 -36.503906 C 6.144531 -45.140625 9.601562 -53.949219 12.433594 -62.925781 C 13.792969 -67.285156 15.007812 -71.675781 15.886719 -76.148438 C 16.398438 -78.726562 17.359375 -84.109375 13.847656 -85.128906 C 10.902344 -85.976562 8.835938 -81.503906 7.84375 -79.40625 C 5.777344 -75.160156 4.503906 -70.457031 3.453125 -65.871094 C 1.246094 -56.214844 0 -46.246094 -0.707031 -36.390625 C -1.132812 -30.640625 -1.300781 -24.921875 -1.246094 -19.171875 C -1.1875 -13.707031 -1.21875 -8.097656 0.113281 -2.746094 C 0.394531 -1.671875 2.917969 -0.960938 3.085938 -2.40625 Z M 10.675781 -36.984375 C 10.902344 -37.578125 13.679688 -42.789062 13.875 -42.5625 C 14.1875 -42.253906 11.867188 -38.429688 11.46875 -37.777344 C 11.101562 -37.183594 10.703125 -36.617188 10.308594 -36.023438 C 10.421875 -36.363281 10.535156 -36.671875 10.675781 -36.984375 Z M 7.5625 -69.636719 C 8.242188 -72.15625 9.035156 -74.675781 10.054688 -77.085938 C 10.421875 -77.992188 13.167969 -83.058594 13.367188 -82.917969 C 14.667969 -82.125 13.28125 -75.921875 13.082031 -74.707031 C 12.628906 -71.789062 11.949219 -68.929688 11.242188 -66.097656 C 9.175781 -57.941406 6.003906 -50.152344 2.859375 -42.367188 C 3.710938 -51.570312 5.097656 -60.800781 7.5625 -69.636719 Z M 7.5625 -69.636719 "/></g></g></g><g fill="#d89d42" fill-opacity="1"><g transform="translate(149.965535, 343.299969)"><g><path d="M 3 -23.816406 C 3.085938 -23.277344 3.992188 -22.683594 4.53125 -23.050781 C 5.917969 -23.984375 5.832031 -26.054688 6.117188 -27.609375 C 6.710938 -30.980469 7.191406 -34.40625 8.097656 -37.75 C 9.457031 -42.847656 11.78125 -48.027344 16.140625 -51.230469 C 16.226562 -51.3125 16 -51.425781 15.945312 -51.371094 C 11.78125 -49.132812 8.976562 -45.367188 7.417969 -40.949219 C 6.457031 -38.203125 5.863281 -35.371094 5.324219 -32.511719 C 5.210938 -31.859375 5.097656 -31.207031 4.984375 -30.554688 C 4.957031 -32.539062 4.984375 -34.492188 5.097656 -36.476562 C 5.210938 -38.457031 5.378906 -40.46875 5.636719 -42.449219 C 5.945312 -44.714844 6.796875 -47.207031 6.429688 -49.445312 C 6.316406 -50.097656 4.925781 -51.003906 4.390625 -50.265625 C 3.339844 -48.738281 3.226562 -46.867188 2.917969 -45.054688 C 2.546875 -42.761719 2.320312 -40.441406 2.152344 -38.089844 C 1.980469 -35.738281 1.925781 -33.386719 1.980469 -31.039062 C 2.011719 -28.488281 2.546875 -26.335938 3 -23.816406 Z M 3 -23.816406 "/></g></g></g><g fill="#d89d42" fill-opacity="1"><g transform="translate(169.927461, 343.299969)"><g><path d="M 11.328125 -30.1875 C 11.382812 -30.386719 10.960938 -30.554688 10.875 -30.359375 C 9.628906 -27.867188 8.496094 -25.601562 6.738281 -23.417969 C 6.371094 -22.964844 6.003906 -22.402344 5.578125 -22.003906 C 5.011719 -21.496094 3.398438 -20.417969 2.605469 -20.816406 C 1.585938 -21.351562 1.640625 -24.777344 1.640625 -25.742188 C 1.699219 -31.292969 3.03125 -36.617188 4.359375 -41.96875 C 4.671875 -43.242188 2.066406 -44.347656 1.585938 -43.101562 C 0.113281 -39.136719 -0.652344 -34.832031 -1.105469 -30.640625 C -1.445312 -27.441406 -2.066406 -22.910156 0.140625 -20.191406 C 5.152344 -13.960938 10.394531 -26.875 11.328125 -30.1875 Z M 2.691406 -46.046875 C 3.144531 -46.046875 3.539062 -46.132812 3.851562 -46.5 C 4.078125 -46.753906 4.246094 -47.039062 4.472656 -47.292969 C 4.957031 -47.859375 5.464844 -48.226562 5.523438 -48.992188 C 5.578125 -49.839844 4.304688 -50.238281 3.679688 -50.152344 C 2.519531 -49.953125 1.558594 -48.707031 1.046875 -47.71875 C 0.933594 -47.460938 1.074219 -47.09375 1.21875 -46.894531 C 1.527344 -46.386719 2.09375 -46.046875 2.691406 -46.046875 Z M 2.691406 -46.046875 "/></g></g></g><g fill="#d89d42" fill-opacity="1"><g transform="translate(189.832746, 343.299969)"><g><path d="M 25.316406 -37.722656 C 25.910156 -37.890625 25.289062 -38.515625 24.890625 -38.484375 C 20.136719 -38.257812 16.085938 -36.023438 12.574219 -32.90625 C 10.734375 -34.859375 8.835938 -36.757812 7.25 -38.769531 C 3.484375 -43.527344 1.472656 -50.039062 4.617188 -55.730469 C 5.351562 -57.0625 6.65625 -58.648438 8.15625 -59.160156 C 11.269531 -60.207031 12.207031 -56.949219 12.460938 -54.769531 C 12.914062 -50.945312 12.148438 -46.8125 10.960938 -43.214844 C 10.761719 -42.59375 12.0625 -42.054688 12.320312 -42.648438 C 14.328125 -47.347656 16.878906 -52.445312 14.585938 -57.542969 C 13.113281 -60.828125 9.402344 -62.640625 6.003906 -61.140625 C 1.898438 -59.328125 0.140625 -54.429688 0.0859375 -50.210938 C 0 -45.847656 1.8125 -41.914062 4.445312 -38.515625 C 6.285156 -36.105469 8.722656 -33.8125 10.960938 -31.40625 C 7.929688 -28.347656 5.351562 -24.75 3.144531 -21.4375 C -0.425781 -16.085938 -8.496094 -1.21875 3.171875 0.28125 C 7.871094 0.90625 12.289062 -2.660156 15.265625 -5.945312 C 18.292969 -9.316406 20.558594 -13.707031 20.445312 -18.324219 C 20.304688 -23.644531 17.359375 -27.695312 13.933594 -31.433594 C 17.191406 -34.351562 20.898438 -36.53125 25.316406 -37.722656 Z M 17.359375 -17.332031 C 16.851562 -12.007812 13.113281 -7.277344 8.921875 -4.191406 C 6.457031 -2.40625 1.753906 0 -0.226562 -3.765625 C -1.613281 -6.398438 -0.199219 -10.222656 0.820312 -12.773438 C 3.03125 -18.378906 6.796875 -23.644531 10.703125 -28.148438 C 11.242188 -28.773438 11.78125 -29.339844 12.320312 -29.90625 C 15.433594 -26.28125 17.871094 -22.34375 17.359375 -17.332031 Z M 17.359375 -17.332031 "/></g></g></g><g fill="#d89d42" fill-opacity="1"><g transform="translate(220.357444, 343.299969)"><g><path d="M -9.941406 -62.445312 C -6.203125 -62.527344 -2.40625 -64.3125 1.160156 -65.359375 C 3.453125 -66.039062 5.71875 -66.691406 8.015625 -67.285156 C 6.851562 -59.414062 6.003906 -51.484375 5.4375 -43.554688 C 4.699219 -33.699219 4.359375 -23.816406 5.070312 -13.960938 C 5.410156 -9.316406 5.976562 -4.671875 6.882812 -0.113281 C 7.871094 4.898438 9.515625 9.402344 11.722656 13.988281 C 11.894531 14.386719 12.941406 14.667969 12.773438 14.019531 C 10.449219 4.785156 8.636719 -4.785156 7.984375 -14.300781 C 7.363281 -23.84375 7.703125 -33.417969 8.382812 -42.933594 C 9.003906 -51.285156 9.828125 -59.695312 10.960938 -68.078125 C 11.582031 -68.21875 12.234375 -68.390625 12.886719 -68.558594 C 16.792969 -69.523438 20.757812 -70.402344 24.722656 -71.195312 C 28.261719 -71.902344 32.253906 -72.042969 35.539062 -73.628906 C 36.390625 -74.054688 35.117188 -74.820312 34.664062 -74.847656 C 30.839844 -75.160156 26.960938 -74.109375 23.191406 -73.375 C 19.230469 -72.582031 15.265625 -71.675781 11.300781 -70.710938 C 12.828125 -81.53125 14.8125 -92.292969 17.359375 -102.828125 C 17.558594 -103.589844 15.914062 -104.242188 15.71875 -103.476562 C 13.226562 -93.792969 10.789062 -84.078125 9.117188 -74.195312 C 8.863281 -72.808594 8.636719 -71.390625 8.410156 -69.976562 C 5.324219 -69.183594 2.238281 -68.304688 -0.820312 -67.398438 C -3.9375 -66.464844 -8.410156 -65.730469 -10.875 -63.492188 C -11.382812 -63.011719 -10.335938 -62.445312 -9.941406 -62.445312 Z M -9.941406 -62.445312 "/></g></g></g><g fill="#d89d42" fill-opacity="1"><g transform="translate(240.942377, 343.299969)"><g><path d="M 0.113281 -23.023438 C 2.886719 -21.609375 5.324219 -23.757812 6.9375 -25.855469 C 8.042969 -27.242188 9.035156 -28.714844 9.941406 -30.246094 C 10.761719 -31.605469 12.0625 -33.445312 12.628906 -35.085938 C 12.660156 -34.152344 12.714844 -33.246094 12.828125 -32.339844 C 13.027344 -30.726562 13.195312 -28.800781 14.101562 -27.441406 C 18.859375 -20.164062 23.984375 -34.746094 25.035156 -37.578125 C 25.089844 -37.75 24.695312 -37.917969 24.636719 -37.75 C 23.816406 -35.683594 22.851562 -33.925781 21.609375 -32.085938 C 20.816406 -30.894531 18.378906 -27.042969 17.273438 -27.042969 C 16.226562 -27.042969 15.972656 -30.414062 15.914062 -31.207031 C 15.800781 -32.738281 15.800781 -34.265625 15.632812 -35.796875 C 15.40625 -37.523438 14.359375 -39.050781 12.433594 -39.164062 C 10.847656 -39.277344 9.261719 -35.539062 8.382812 -33.839844 C 7.277344 -31.71875 4.417969 -24.835938 1.839844 -25.628906 C 1.046875 -25.882812 0.453125 -26.789062 0.394531 -28.09375 C 0.339844 -29.054688 0.425781 -30.019531 0.566406 -30.953125 C 0.847656 -32.933594 1.558594 -34.890625 2.351562 -36.730469 C 3.710938 -39.789062 5.324219 -43.101562 7.816406 -45.421875 C 9.261719 -46.753906 11.328125 -48 13.394531 -47.832031 C 16 -47.660156 16.679688 -45.453125 17.8125 -43.582031 C 18.097656 -43.128906 19.03125 -42.875 19.34375 -43.386719 C 19.34375 -43.386719 20.078125 -46.726562 16.027344 -49.160156 C 13.566406 -50.664062 10.394531 -50.265625 7.871094 -48.964844 C 4.871094 -47.433594 2.945312 -44.574219 1.359375 -41.714844 C -0.539062 -38.316406 -2.238281 -34.578125 -2.578125 -30.640625 C -2.832031 -27.949219 -2.605469 -24.382812 0.113281 -23.023438 Z M 0.113281 -23.023438 "/></g></g></g></svg>