<?xml version="1.0" encoding="UTF-8"?>
<svg id="Layer_1" data-name="Layer 1" xmlns="http://www.w3.org/2000/svg" viewBox="0 0 288 288">
  <defs>
    <style>
      .cls-1 {
        fill: #231f20;
        stroke-width: 0px;
      }
    </style>
  </defs>
  <path class="cls-1" d="m144.72,62.17h11.83v96.56h-11.83v-24.75l-6.12-6.8-22.71,31.55h-14.55l28.97-38.76-25.43-27.06h14.42l19.31,22.71c1.9,2.31,4.22,5.17,5.85,7.48h.27v-60.93Z"/>
  <path class="cls-1" d="m158.17,110.65c.07-5.93,0,0-.13-12.28l10.12-5.4.68,10.8h.27c3.24-6.21,10.8-12.28,21.6-12.28,9.04,0,23.08,5.4,23.08,27.81v39.01h-11.88v-37.66c0-10.53-3.92-19.3-15.12-19.3-7.83,0-13.9,5.53-15.93,12.15-.54,1.49-.81,3.51-.81,5.54v39.28h-11.88v-47.65Z"/>
</svg>